<?xml version="1.0" encoding="utf-8"?>
<svg xmlns="http://www.w3.org/2000/svg" xmlns:xlink="http://www.w3.org/1999/xlink" width="1700px" height="1700px">
<circle cx="40" cy="174"  r="2" stroke="blue" stroke-width="2"/>
<circle cx="212" cy="266"  r="2" stroke="blue" stroke-width="2"/>
<circle cx="209" cy="239"  r="2" stroke="blue" stroke-width="2"/>
<circle cx="218" cy="261"  r="2" stroke="blue" stroke-width="2"/>
<circle cx="453" cy="178"  r="2" stroke="blue" stroke-width="2"/>
<circle cx="413" cy="80"  r="2" stroke="blue" stroke-width="2"/>
<circle cx="372" cy="223"  r="2" stroke="blue" stroke-width="2"/>
<circle cx="376" cy="289"  r="2" stroke="blue" stroke-width="2"/>
<circle cx="259" cy="484"  r="2" stroke="blue" stroke-width="2"/>
<circle cx="359" cy="380"  r="2" stroke="blue" stroke-width="2"/>
<circle cx="482" cy="50"  r="2" stroke="blue" stroke-width="2"/>
<circle cx="208" cy="98"  r="2" stroke="blue" stroke-width="2"/>
<circle cx="243" cy="260"  r="2" stroke="blue" stroke-width="2"/>
<circle cx="439" cy="427"  r="2" stroke="blue" stroke-width="2"/>
<circle cx="241" cy="168"  r="2" stroke="blue" stroke-width="2"/>
<circle cx="128" cy="147"  r="2" stroke="blue" stroke-width="2"/>
<circle cx="448" cy="130"  r="2" stroke="blue" stroke-width="2"/>
<circle cx="351" cy="122"  r="2" stroke="blue" stroke-width="2"/>
<circle cx="334" cy="306"  r="2" stroke="blue" stroke-width="2"/>
<circle cx="375" cy="214"  r="2" stroke="blue" stroke-width="2"/>
<circle cx="438" cy="207"  r="2" stroke="blue" stroke-width="2"/>
<circle cx="290" cy="445"  r="2" stroke="blue" stroke-width="2"/>
<circle cx="395" cy="354"  r="2" stroke="blue" stroke-width="2"/>
<circle cx="439" cy="309"  r="2" stroke="blue" stroke-width="2"/>
<circle cx="299" cy="104"  r="2" stroke="blue" stroke-width="2"/>
<circle cx="350" cy="216"  r="2" stroke="blue" stroke-width="2"/>
<circle cx="52" cy="491"  r="2" stroke="blue" stroke-width="2"/>
<circle cx="214" cy="459"  r="2" stroke="blue" stroke-width="2"/>
<circle cx="70" cy="235"  r="2" stroke="blue" stroke-width="2"/>
<circle cx="465" cy="266"  r="2" stroke="blue" stroke-width="2"/>
<line  x1="40" y1="50" x2="482" y2="50" style="stroke:rgb(197,208,230);stroke-width:2"/>
<line  x1="40" y1="50" x2="40" y2="491" style="stroke:rgb(197,208,230);stroke-width:2"/>
<line  x1="482" y1="50" x2="482" y2="491" style="stroke:rgb(197,208,230);stroke-width:2"/>
<line  x1="40" y1="491" x2="482" y2="491" style="stroke:rgb(197,208,230);stroke-width:2"/>
<line  x1="482" y1="50" x2="482" y2="50" style="stroke:rgb(168,228,160);stroke-width:2"/>
<line  x1="482" y1="50" x2="482" y2="50" style="stroke:rgb(168,228,160);stroke-width:2"/>
<line  x1="482" y1="50" x2="482" y2="50" style="stroke:rgb(168,228,160);stroke-width:2"/>
<line  x1="482" y1="50" x2="482" y2="50" style="stroke:rgb(168,228,160);stroke-width:2"/>
<line  x1="465" y1="266" x2="482" y2="50" style="stroke:rgb(168,228,160);stroke-width:2"/>
<line  x1="465" y1="266" x2="465" y2="266" style="stroke:rgb(168,228,160);stroke-width:2"/>
<line  x1="465" y1="266" x2="465" y2="266" style="stroke:rgb(168,228,160);stroke-width:2"/>
<line  x1="465" y1="266" x2="465" y2="266" style="stroke:rgb(168,228,160);stroke-width:2"/>
<line  x1="465" y1="266" x2="465" y2="266" style="stroke:rgb(168,228,160);stroke-width:2"/>
<line  x1="439" y1="427" x2="465" y2="266" style="stroke:rgb(168,228,160);stroke-width:2"/>
<line  x1="439" y1="427" x2="439" y2="427" style="stroke:rgb(168,228,160);stroke-width:2"/>
<line  x1="439" y1="427" x2="439" y2="427" style="stroke:rgb(168,228,160);stroke-width:2"/>
<line  x1="439" y1="427" x2="439" y2="427" style="stroke:rgb(168,228,160);stroke-width:2"/>
<line  x1="439" y1="427" x2="439" y2="427" style="stroke:rgb(168,228,160);stroke-width:2"/>
<line  x1="439" y1="427" x2="439" y2="427" style="stroke:rgb(168,228,160);stroke-width:2"/>
<line  x1="439" y1="427" x2="439" y2="427" style="stroke:rgb(168,228,160);stroke-width:2"/>
<line  x1="439" y1="427" x2="439" y2="427" style="stroke:rgb(168,228,160);stroke-width:2"/>
<line  x1="439" y1="427" x2="439" y2="427" style="stroke:rgb(168,228,160);stroke-width:2"/>
<line  x1="439" y1="427" x2="439" y2="427" style="stroke:rgb(168,228,160);stroke-width:2"/>
<line  x1="439" y1="427" x2="439" y2="427" style="stroke:rgb(168,228,160);stroke-width:2"/>
<line  x1="439" y1="427" x2="439" y2="427" style="stroke:rgb(168,228,160);stroke-width:2"/>
<line  x1="439" y1="427" x2="439" y2="427" style="stroke:rgb(168,228,160);stroke-width:2"/>
<line  x1="439" y1="427" x2="439" y2="427" style="stroke:rgb(168,228,160);stroke-width:2"/>
<line  x1="439" y1="427" x2="439" y2="427" style="stroke:rgb(168,228,160);stroke-width:2"/>
<line  x1="439" y1="427" x2="439" y2="427" style="stroke:rgb(168,228,160);stroke-width:2"/>
<line  x1="439" y1="427" x2="439" y2="427" style="stroke:rgb(168,228,160);stroke-width:2"/>
<line  x1="439" y1="427" x2="439" y2="427" style="stroke:rgb(168,228,160);stroke-width:2"/>
<line  x1="439" y1="427" x2="439" y2="427" style="stroke:rgb(168,228,160);stroke-width:2"/>
<line  x1="439" y1="427" x2="439" y2="427" style="stroke:rgb(168,228,160);stroke-width:2"/>
<line  x1="439" y1="427" x2="439" y2="427" style="stroke:rgb(168,228,160);stroke-width:2"/>
<line  x1="439" y1="427" x2="439" y2="427" style="stroke:rgb(168,228,160);stroke-width:2"/>
<line  x1="439" y1="427" x2="439" y2="427" style="stroke:rgb(168,228,160);stroke-width:2"/>
<line  x1="439" y1="427" x2="439" y2="427" style="stroke:rgb(168,228,160);stroke-width:2"/>
<line  x1="439" y1="427" x2="439" y2="427" style="stroke:rgb(168,228,160);stroke-width:2"/>
<line  x1="439" y1="427" x2="439" y2="427" style="stroke:rgb(168,228,160);stroke-width:2"/>
<line  x1="439" y1="427" x2="439" y2="427" style="stroke:rgb(168,228,160);stroke-width:2"/>
<line  x1="439" y1="427" x2="439" y2="427" style="stroke:rgb(168,228,160);stroke-width:2"/>
<line  x1="439" y1="427" x2="439" y2="427" style="stroke:rgb(168,228,160);stroke-width:2"/>
<line  x1="439" y1="427" x2="439" y2="427" style="stroke:rgb(168,228,160);stroke-width:2"/>
<line  x1="439" y1="427" x2="439" y2="427" style="stroke:rgb(168,228,160);stroke-width:2"/>
<line  x1="439" y1="427" x2="439" y2="427" style="stroke:rgb(168,228,160);stroke-width:2"/>
<line  x1="439" y1="427" x2="439" y2="427" style="stroke:rgb(168,228,160);stroke-width:2"/>
<line  x1="439" y1="427" x2="439" y2="427" style="stroke:rgb(168,228,160);stroke-width:2"/>
<line  x1="439" y1="427" x2="439" y2="427" style="stroke:rgb(168,228,160);stroke-width:2"/>
<line  x1="439" y1="427" x2="439" y2="427" style="stroke:rgb(168,228,160);stroke-width:2"/>
<line  x1="439" y1="427" x2="439" y2="427" style="stroke:rgb(168,228,160);stroke-width:2"/>
<line  x1="439" y1="427" x2="439" y2="427" style="stroke:rgb(168,228,160);stroke-width:2"/>
<line  x1="439" y1="427" x2="439" y2="427" style="stroke:rgb(168,228,160);stroke-width:2"/>
<line  x1="439" y1="427" x2="439" y2="427" style="stroke:rgb(168,228,160);stroke-width:2"/>
<line  x1="439" y1="427" x2="439" y2="427" style="stroke:rgb(168,228,160);stroke-width:2"/>
<line  x1="439" y1="427" x2="439" y2="427" style="stroke:rgb(168,228,160);stroke-width:2"/>
<line  x1="439" y1="427" x2="439" y2="427" style="stroke:rgb(168,228,160);stroke-width:2"/>
<line  x1="439" y1="427" x2="439" y2="427" style="stroke:rgb(168,228,160);stroke-width:2"/>
<line  x1="439" y1="427" x2="439" y2="427" style="stroke:rgb(168,228,160);stroke-width:2"/>
<line  x1="439" y1="427" x2="439" y2="427" style="stroke:rgb(168,228,160);stroke-width:2"/>
<line  x1="439" y1="427" x2="439" y2="427" style="stroke:rgb(168,228,160);stroke-width:2"/>
<line  x1="439" y1="427" x2="439" y2="427" style="stroke:rgb(168,228,160);stroke-width:2"/>
<line  x1="439" y1="427" x2="439" y2="427" style="stroke:rgb(168,228,160);stroke-width:2"/>
<line  x1="439" y1="427" x2="439" y2="427" style="stroke:rgb(168,228,160);stroke-width:2"/>
<line  x1="439" y1="427" x2="439" y2="427" style="stroke:rgb(168,228,160);stroke-width:2"/>
<line  x1="439" y1="427" x2="439" y2="427" style="stroke:rgb(168,228,160);stroke-width:2"/>
<line  x1="439" y1="427" x2="439" y2="427" style="stroke:rgb(168,228,160);stroke-width:2"/>
<line  x1="439" y1="427" x2="439" y2="427" style="stroke:rgb(168,228,160);stroke-width:2"/>
<line  x1="439" y1="427" x2="439" y2="427" style="stroke:rgb(168,228,160);stroke-width:2"/>
<line  x1="439" y1="427" x2="439" y2="427" style="stroke:rgb(168,228,160);stroke-width:2"/>
<line  x1="439" y1="427" x2="439" y2="427" style="stroke:rgb(168,228,160);stroke-width:2"/>
<line  x1="439" y1="427" x2="439" y2="427" style="stroke:rgb(168,228,160);stroke-width:2"/>
<line  x1="439" y1="427" x2="439" y2="427" style="stroke:rgb(168,228,160);stroke-width:2"/>
<line  x1="439" y1="427" x2="439" y2="427" style="stroke:rgb(168,228,160);stroke-width:2"/>
<line  x1="439" y1="427" x2="439" y2="427" style="stroke:rgb(168,228,160);stroke-width:2"/>
<line  x1="439" y1="427" x2="439" y2="427" style="stroke:rgb(168,228,160);stroke-width:2"/>
<line  x1="439" y1="427" x2="439" y2="427" style="stroke:rgb(168,228,160);stroke-width:2"/>
<line  x1="259" y1="484" x2="439" y2="427" style="stroke:rgb(168,228,160);stroke-width:2"/>
<line  x1="259" y1="484" x2="259" y2="484" style="stroke:rgb(168,228,160);stroke-width:2"/>
<line  x1="259" y1="484" x2="259" y2="484" style="stroke:rgb(168,228,160);stroke-width:2"/>
<line  x1="259" y1="484" x2="259" y2="484" style="stroke:rgb(168,228,160);stroke-width:2"/>
<line  x1="259" y1="484" x2="259" y2="484" style="stroke:rgb(168,228,160);stroke-width:2"/>
<line  x1="259" y1="484" x2="259" y2="484" style="stroke:rgb(168,228,160);stroke-width:2"/>
<line  x1="259" y1="484" x2="259" y2="484" style="stroke:rgb(168,228,160);stroke-width:2"/>
<line  x1="259" y1="484" x2="259" y2="484" style="stroke:rgb(168,228,160);stroke-width:2"/>
<line  x1="259" y1="484" x2="259" y2="484" style="stroke:rgb(168,228,160);stroke-width:2"/>
<line  x1="259" y1="484" x2="259" y2="484" style="stroke:rgb(168,228,160);stroke-width:2"/>
<line  x1="259" y1="484" x2="259" y2="484" style="stroke:rgb(168,228,160);stroke-width:2"/>
<line  x1="259" y1="484" x2="259" y2="484" style="stroke:rgb(168,228,160);stroke-width:2"/>
<line  x1="259" y1="484" x2="259" y2="484" style="stroke:rgb(168,228,160);stroke-width:2"/>
<line  x1="259" y1="484" x2="259" y2="484" style="stroke:rgb(168,228,160);stroke-width:2"/>
<line  x1="259" y1="484" x2="259" y2="484" style="stroke:rgb(168,228,160);stroke-width:2"/>
<line  x1="259" y1="484" x2="259" y2="484" style="stroke:rgb(168,228,160);stroke-width:2"/>
<line  x1="52" y1="491" x2="259" y2="484" style="stroke:rgb(168,228,160);stroke-width:2"/>
<line  x1="52" y1="491" x2="52" y2="491" style="stroke:rgb(168,228,160);stroke-width:2"/>
<line  x1="52" y1="491" x2="52" y2="491" style="stroke:rgb(168,228,160);stroke-width:2"/>
<line  x1="52" y1="491" x2="52" y2="491" style="stroke:rgb(168,228,160);stroke-width:2"/>
<line  x1="52" y1="491" x2="52" y2="491" style="stroke:rgb(168,228,160);stroke-width:2"/>
<line  x1="52" y1="491" x2="52" y2="491" style="stroke:rgb(168,228,160);stroke-width:2"/>
<line  x1="52" y1="491" x2="52" y2="491" style="stroke:rgb(168,228,160);stroke-width:2"/>
<line  x1="52" y1="491" x2="52" y2="491" style="stroke:rgb(168,228,160);stroke-width:2"/>
<line  x1="52" y1="491" x2="52" y2="491" style="stroke:rgb(168,228,160);stroke-width:2"/>
<line  x1="52" y1="491" x2="52" y2="491" style="stroke:rgb(168,228,160);stroke-width:2"/>
<line  x1="52" y1="491" x2="52" y2="491" style="stroke:rgb(168,228,160);stroke-width:2"/>
<line  x1="52" y1="491" x2="52" y2="491" style="stroke:rgb(168,228,160);stroke-width:2"/>
<line  x1="52" y1="491" x2="52" y2="491" style="stroke:rgb(168,228,160);stroke-width:2"/>
<line  x1="52" y1="491" x2="52" y2="491" style="stroke:rgb(168,228,160);stroke-width:2"/>
<line  x1="52" y1="491" x2="52" y2="491" style="stroke:rgb(168,228,160);stroke-width:2"/>
<line  x1="52" y1="491" x2="52" y2="491" style="stroke:rgb(168,228,160);stroke-width:2"/>
<line  x1="52" y1="491" x2="52" y2="491" style="stroke:rgb(168,228,160);stroke-width:2"/>
<line  x1="52" y1="491" x2="52" y2="491" style="stroke:rgb(168,228,160);stroke-width:2"/>
<line  x1="52" y1="491" x2="52" y2="491" style="stroke:rgb(168,228,160);stroke-width:2"/>
<line  x1="52" y1="491" x2="52" y2="491" style="stroke:rgb(168,228,160);stroke-width:2"/>
<line  x1="52" y1="491" x2="52" y2="491" style="stroke:rgb(168,228,160);stroke-width:2"/>
<line  x1="52" y1="491" x2="52" y2="491" style="stroke:rgb(168,228,160);stroke-width:2"/>
<line  x1="52" y1="491" x2="52" y2="491" style="stroke:rgb(168,228,160);stroke-width:2"/>
<line  x1="52" y1="491" x2="52" y2="491" style="stroke:rgb(168,228,160);stroke-width:2"/>
<line  x1="52" y1="491" x2="52" y2="491" style="stroke:rgb(168,228,160);stroke-width:2"/>
<line  x1="52" y1="491" x2="52" y2="491" style="stroke:rgb(168,228,160);stroke-width:2"/>
<line  x1="52" y1="491" x2="52" y2="491" style="stroke:rgb(168,228,160);stroke-width:2"/>
<line  x1="52" y1="491" x2="52" y2="491" style="stroke:rgb(168,228,160);stroke-width:2"/>
<line  x1="52" y1="491" x2="52" y2="491" style="stroke:rgb(168,228,160);stroke-width:2"/>
<line  x1="52" y1="491" x2="52" y2="491" style="stroke:rgb(168,228,160);stroke-width:2"/>
<line  x1="52" y1="491" x2="52" y2="491" style="stroke:rgb(168,228,160);stroke-width:2"/>
<line  x1="52" y1="491" x2="52" y2="491" style="stroke:rgb(168,228,160);stroke-width:2"/>
<line  x1="52" y1="491" x2="52" y2="491" style="stroke:rgb(168,228,160);stroke-width:2"/>
<line  x1="52" y1="491" x2="52" y2="491" style="stroke:rgb(168,228,160);stroke-width:2"/>
<line  x1="52" y1="491" x2="52" y2="491" style="stroke:rgb(168,228,160);stroke-width:2"/>
<line  x1="52" y1="491" x2="52" y2="491" style="stroke:rgb(168,228,160);stroke-width:2"/>
<line  x1="52" y1="491" x2="52" y2="491" style="stroke:rgb(168,228,160);stroke-width:2"/>
<line  x1="52" y1="491" x2="52" y2="491" style="stroke:rgb(168,228,160);stroke-width:2"/>
<line  x1="52" y1="491" x2="52" y2="491" style="stroke:rgb(168,228,160);stroke-width:2"/>
<line  x1="52" y1="491" x2="52" y2="491" style="stroke:rgb(168,228,160);stroke-width:2"/>
<line  x1="52" y1="491" x2="52" y2="491" style="stroke:rgb(168,228,160);stroke-width:2"/>
<line  x1="52" y1="491" x2="52" y2="491" style="stroke:rgb(168,228,160);stroke-width:2"/>
<line  x1="52" y1="491" x2="52" y2="491" style="stroke:rgb(168,228,160);stroke-width:2"/>
<line  x1="52" y1="491" x2="52" y2="491" style="stroke:rgb(168,228,160);stroke-width:2"/>
<line  x1="52" y1="491" x2="52" y2="491" style="stroke:rgb(168,228,160);stroke-width:2"/>
<line  x1="52" y1="491" x2="52" y2="491" style="stroke:rgb(168,228,160);stroke-width:2"/>
<line  x1="52" y1="491" x2="52" y2="491" style="stroke:rgb(168,228,160);stroke-width:2"/>
<line  x1="52" y1="491" x2="52" y2="491" style="stroke:rgb(168,228,160);stroke-width:2"/>
<line  x1="52" y1="491" x2="52" y2="491" style="stroke:rgb(168,228,160);stroke-width:2"/>
<line  x1="52" y1="491" x2="52" y2="491" style="stroke:rgb(168,228,160);stroke-width:2"/>
<line  x1="52" y1="491" x2="52" y2="491" style="stroke:rgb(168,228,160);stroke-width:2"/>
<line  x1="52" y1="491" x2="52" y2="491" style="stroke:rgb(168,228,160);stroke-width:2"/>
<line  x1="52" y1="491" x2="52" y2="491" style="stroke:rgb(168,228,160);stroke-width:2"/>
<line  x1="52" y1="491" x2="52" y2="491" style="stroke:rgb(168,228,160);stroke-width:2"/>
<line  x1="52" y1="491" x2="52" y2="491" style="stroke:rgb(168,228,160);stroke-width:2"/>
<line  x1="52" y1="491" x2="52" y2="491" style="stroke:rgb(168,228,160);stroke-width:2"/>
<line  x1="52" y1="491" x2="52" y2="491" style="stroke:rgb(168,228,160);stroke-width:2"/>
<line  x1="52" y1="491" x2="52" y2="491" style="stroke:rgb(168,228,160);stroke-width:2"/>
<line  x1="52" y1="491" x2="52" y2="491" style="stroke:rgb(168,228,160);stroke-width:2"/>
<line  x1="52" y1="491" x2="52" y2="491" style="stroke:rgb(168,228,160);stroke-width:2"/>
<line  x1="52" y1="491" x2="52" y2="491" style="stroke:rgb(168,228,160);stroke-width:2"/>
<line  x1="52" y1="491" x2="52" y2="491" style="stroke:rgb(168,228,160);stroke-width:2"/>
<line  x1="52" y1="491" x2="52" y2="491" style="stroke:rgb(168,228,160);stroke-width:2"/>
<line  x1="52" y1="491" x2="52" y2="491" style="stroke:rgb(168,228,160);stroke-width:2"/>
<line  x1="52" y1="491" x2="52" y2="491" style="stroke:rgb(168,228,160);stroke-width:2"/>
<line  x1="52" y1="491" x2="52" y2="491" style="stroke:rgb(168,228,160);stroke-width:2"/>
<line  x1="52" y1="491" x2="52" y2="491" style="stroke:rgb(168,228,160);stroke-width:2"/>
<line  x1="52" y1="491" x2="52" y2="491" style="stroke:rgb(168,228,160);stroke-width:2"/>
<line  x1="52" y1="491" x2="52" y2="491" style="stroke:rgb(168,228,160);stroke-width:2"/>
<line  x1="52" y1="491" x2="52" y2="491" style="stroke:rgb(168,228,160);stroke-width:2"/>
<line  x1="52" y1="491" x2="52" y2="491" style="stroke:rgb(168,228,160);stroke-width:2"/>
<line  x1="52" y1="491" x2="52" y2="491" style="stroke:rgb(168,228,160);stroke-width:2"/>
<line  x1="52" y1="491" x2="52" y2="491" style="stroke:rgb(168,228,160);stroke-width:2"/>
<line  x1="52" y1="491" x2="52" y2="491" style="stroke:rgb(168,228,160);stroke-width:2"/>
<line  x1="52" y1="491" x2="52" y2="491" style="stroke:rgb(168,228,160);stroke-width:2"/>
<line  x1="52" y1="491" x2="52" y2="491" style="stroke:rgb(168,228,160);stroke-width:2"/>
<line  x1="52" y1="491" x2="52" y2="491" style="stroke:rgb(168,228,160);stroke-width:2"/>
<line  x1="52" y1="491" x2="52" y2="491" style="stroke:rgb(168,228,160);stroke-width:2"/>
<line  x1="52" y1="491" x2="52" y2="491" style="stroke:rgb(168,228,160);stroke-width:2"/>
<line  x1="52" y1="491" x2="52" y2="491" style="stroke:rgb(168,228,160);stroke-width:2"/>
<line  x1="52" y1="491" x2="52" y2="491" style="stroke:rgb(168,228,160);stroke-width:2"/>
<line  x1="52" y1="491" x2="52" y2="491" style="stroke:rgb(168,228,160);stroke-width:2"/>
<line  x1="52" y1="491" x2="52" y2="491" style="stroke:rgb(168,228,160);stroke-width:2"/>
<line  x1="52" y1="491" x2="52" y2="491" style="stroke:rgb(168,228,160);stroke-width:2"/>
<line  x1="52" y1="491" x2="52" y2="491" style="stroke:rgb(168,228,160);stroke-width:2"/>
<line  x1="52" y1="491" x2="52" y2="491" style="stroke:rgb(168,228,160);stroke-width:2"/>
<line  x1="52" y1="491" x2="52" y2="491" style="stroke:rgb(168,228,160);stroke-width:2"/>
<line  x1="52" y1="491" x2="52" y2="491" style="stroke:rgb(168,228,160);stroke-width:2"/>
<line  x1="52" y1="491" x2="52" y2="491" style="stroke:rgb(168,228,160);stroke-width:2"/>
<line  x1="40" y1="174" x2="52" y2="491" style="stroke:rgb(168,228,160);stroke-width:2"/>
<line  x1="40" y1="174" x2="40" y2="174" style="stroke:rgb(168,228,160);stroke-width:2"/>
<line  x1="40" y1="174" x2="40" y2="174" style="stroke:rgb(168,228,160);stroke-width:2"/>
<line  x1="40" y1="174" x2="40" y2="174" style="stroke:rgb(168,228,160);stroke-width:2"/>
<line  x1="40" y1="174" x2="40" y2="174" style="stroke:rgb(168,228,160);stroke-width:2"/>
<line  x1="40" y1="174" x2="40" y2="174" style="stroke:rgb(168,228,160);stroke-width:2"/>
<line  x1="40" y1="174" x2="40" y2="174" style="stroke:rgb(168,228,160);stroke-width:2"/>
<line  x1="40" y1="174" x2="40" y2="174" style="stroke:rgb(168,228,160);stroke-width:2"/>
<line  x1="40" y1="174" x2="40" y2="174" style="stroke:rgb(168,228,160);stroke-width:2"/>
<line  x1="40" y1="174" x2="40" y2="174" style="stroke:rgb(168,228,160);stroke-width:2"/>
<line  x1="40" y1="174" x2="40" y2="174" style="stroke:rgb(168,228,160);stroke-width:2"/>
<line  x1="40" y1="174" x2="40" y2="174" style="stroke:rgb(168,228,160);stroke-width:2"/>
<line  x1="40" y1="174" x2="40" y2="174" style="stroke:rgb(168,228,160);stroke-width:2"/>
<line  x1="40" y1="174" x2="40" y2="174" style="stroke:rgb(168,228,160);stroke-width:2"/>
<line  x1="40" y1="174" x2="40" y2="174" style="stroke:rgb(168,228,160);stroke-width:2"/>
<line  x1="40" y1="174" x2="40" y2="174" style="stroke:rgb(168,228,160);stroke-width:2"/>
<line  x1="40" y1="174" x2="40" y2="174" style="stroke:rgb(168,228,160);stroke-width:2"/>
<line  x1="40" y1="174" x2="40" y2="174" style="stroke:rgb(168,228,160);stroke-width:2"/>
<line  x1="40" y1="174" x2="40" y2="174" style="stroke:rgb(168,228,160);stroke-width:2"/>
<line  x1="40" y1="174" x2="40" y2="174" style="stroke:rgb(168,228,160);stroke-width:2"/>
<line  x1="40" y1="174" x2="40" y2="174" style="stroke:rgb(168,228,160);stroke-width:2"/>
<line  x1="40" y1="174" x2="40" y2="174" style="stroke:rgb(168,228,160);stroke-width:2"/>
<line  x1="40" y1="174" x2="40" y2="174" style="stroke:rgb(168,228,160);stroke-width:2"/>
<line  x1="40" y1="174" x2="40" y2="174" style="stroke:rgb(168,228,160);stroke-width:2"/>
<line  x1="40" y1="174" x2="40" y2="174" style="stroke:rgb(168,228,160);stroke-width:2"/>
<line  x1="40" y1="174" x2="40" y2="174" style="stroke:rgb(168,228,160);stroke-width:2"/>
<line  x1="40" y1="174" x2="40" y2="174" style="stroke:rgb(168,228,160);stroke-width:2"/>
<line  x1="40" y1="174" x2="40" y2="174" style="stroke:rgb(168,228,160);stroke-width:2"/>
<line  x1="40" y1="174" x2="40" y2="174" style="stroke:rgb(168,228,160);stroke-width:2"/>
<line  x1="40" y1="174" x2="40" y2="174" style="stroke:rgb(168,228,160);stroke-width:2"/>
<line  x1="40" y1="174" x2="40" y2="174" style="stroke:rgb(168,228,160);stroke-width:2"/>
<line  x1="40" y1="174" x2="40" y2="174" style="stroke:rgb(168,228,160);stroke-width:2"/>
<line  x1="40" y1="174" x2="40" y2="174" style="stroke:rgb(168,228,160);stroke-width:2"/>
<line  x1="40" y1="174" x2="40" y2="174" style="stroke:rgb(168,228,160);stroke-width:2"/>
<line  x1="40" y1="174" x2="40" y2="174" style="stroke:rgb(168,228,160);stroke-width:2"/>
<line  x1="40" y1="174" x2="40" y2="174" style="stroke:rgb(168,228,160);stroke-width:2"/>
<line  x1="40" y1="174" x2="40" y2="174" style="stroke:rgb(168,228,160);stroke-width:2"/>
<line  x1="40" y1="174" x2="40" y2="174" style="stroke:rgb(168,228,160);stroke-width:2"/>
<line  x1="40" y1="174" x2="40" y2="174" style="stroke:rgb(168,228,160);stroke-width:2"/>
<line  x1="40" y1="174" x2="40" y2="174" style="stroke:rgb(168,228,160);stroke-width:2"/>
<line  x1="40" y1="174" x2="40" y2="174" style="stroke:rgb(168,228,160);stroke-width:2"/>
<line  x1="40" y1="174" x2="40" y2="174" style="stroke:rgb(168,228,160);stroke-width:2"/>
<line  x1="40" y1="174" x2="40" y2="174" style="stroke:rgb(168,228,160);stroke-width:2"/>
<line  x1="40" y1="174" x2="40" y2="174" style="stroke:rgb(168,228,160);stroke-width:2"/>
<line  x1="40" y1="174" x2="40" y2="174" style="stroke:rgb(168,228,160);stroke-width:2"/>
<line  x1="40" y1="174" x2="40" y2="174" style="stroke:rgb(168,228,160);stroke-width:2"/>
<line  x1="40" y1="174" x2="40" y2="174" style="stroke:rgb(168,228,160);stroke-width:2"/>
<line  x1="40" y1="174" x2="40" y2="174" style="stroke:rgb(168,228,160);stroke-width:2"/>
<line  x1="40" y1="174" x2="40" y2="174" style="stroke:rgb(168,228,160);stroke-width:2"/>
<line  x1="40" y1="174" x2="40" y2="174" style="stroke:rgb(168,228,160);stroke-width:2"/>
<line  x1="40" y1="174" x2="40" y2="174" style="stroke:rgb(168,228,160);stroke-width:2"/>
<line  x1="40" y1="174" x2="40" y2="174" style="stroke:rgb(168,228,160);stroke-width:2"/>
<line  x1="40" y1="174" x2="40" y2="174" style="stroke:rgb(168,228,160);stroke-width:2"/>
<line  x1="40" y1="174" x2="40" y2="174" style="stroke:rgb(168,228,160);stroke-width:2"/>
<line  x1="40" y1="174" x2="40" y2="174" style="stroke:rgb(168,228,160);stroke-width:2"/>
<line  x1="40" y1="174" x2="40" y2="174" style="stroke:rgb(168,228,160);stroke-width:2"/>
<line  x1="40" y1="174" x2="40" y2="174" style="stroke:rgb(168,228,160);stroke-width:2"/>
<line  x1="40" y1="174" x2="40" y2="174" style="stroke:rgb(168,228,160);stroke-width:2"/>
<line  x1="40" y1="174" x2="40" y2="174" style="stroke:rgb(168,228,160);stroke-width:2"/>
<line  x1="40" y1="174" x2="40" y2="174" style="stroke:rgb(168,228,160);stroke-width:2"/>
<line  x1="40" y1="174" x2="40" y2="174" style="stroke:rgb(168,228,160);stroke-width:2"/>
<line  x1="40" y1="174" x2="40" y2="174" style="stroke:rgb(168,228,160);stroke-width:2"/>
<line  x1="40" y1="174" x2="40" y2="174" style="stroke:rgb(168,228,160);stroke-width:2"/>
<line  x1="40" y1="174" x2="40" y2="174" style="stroke:rgb(168,228,160);stroke-width:2"/>
<line  x1="40" y1="174" x2="40" y2="174" style="stroke:rgb(168,228,160);stroke-width:2"/>
<line  x1="40" y1="174" x2="40" y2="174" style="stroke:rgb(168,228,160);stroke-width:2"/>
<line  x1="40" y1="174" x2="40" y2="174" style="stroke:rgb(168,228,160);stroke-width:2"/>
<line  x1="40" y1="174" x2="40" y2="174" style="stroke:rgb(168,228,160);stroke-width:2"/>
<line  x1="208" y1="98" x2="40" y2="174" style="stroke:rgb(168,228,160);stroke-width:2"/>
<line  x1="208" y1="98" x2="208" y2="98" style="stroke:rgb(168,228,160);stroke-width:2"/>
<line  x1="208" y1="98" x2="208" y2="98" style="stroke:rgb(168,228,160);stroke-width:2"/>
<line  x1="208" y1="98" x2="208" y2="98" style="stroke:rgb(168,228,160);stroke-width:2"/>
<line  x1="208" y1="98" x2="208" y2="98" style="stroke:rgb(168,228,160);stroke-width:2"/>
<line  x1="208" y1="98" x2="208" y2="98" style="stroke:rgb(168,228,160);stroke-width:2"/>
<line  x1="208" y1="98" x2="208" y2="98" style="stroke:rgb(168,228,160);stroke-width:2"/>
<line  x1="208" y1="98" x2="208" y2="98" style="stroke:rgb(168,228,160);stroke-width:2"/>
<line  x1="208" y1="98" x2="208" y2="98" style="stroke:rgb(168,228,160);stroke-width:2"/>
<line  x1="208" y1="98" x2="208" y2="98" style="stroke:rgb(168,228,160);stroke-width:2"/>
<line  x1="208" y1="98" x2="208" y2="98" style="stroke:rgb(168,228,160);stroke-width:2"/>
<line  x1="208" y1="98" x2="208" y2="98" style="stroke:rgb(168,228,160);stroke-width:2"/>
<line  x1="208" y1="98" x2="208" y2="98" style="stroke:rgb(168,228,160);stroke-width:2"/>
<line  x1="208" y1="98" x2="208" y2="98" style="stroke:rgb(168,228,160);stroke-width:2"/>
<line  x1="208" y1="98" x2="208" y2="98" style="stroke:rgb(168,228,160);stroke-width:2"/>
<line  x1="482" y1="50" x2="208" y2="98" style="stroke:rgb(168,228,160);stroke-width:2"/>
<line  x1="482" y1="50" x2="482" y2="50" style="stroke:rgb(168,228,160);stroke-width:2"/>
<line  x1="482" y1="50" x2="482" y2="50" style="stroke:rgb(168,228,160);stroke-width:2"/>
<line  x1="482" y1="50" x2="482" y2="50" style="stroke:rgb(168,228,160);stroke-width:2"/>
<line  x1="482" y1="50" x2="482" y2="50" style="stroke:rgb(168,228,160);stroke-width:2"/>
<line  x1="482" y1="50" x2="482" y2="50" style="stroke:rgb(168,228,160);stroke-width:2"/>
<line  x1="482" y1="50" x2="482" y2="50" style="stroke:rgb(168,228,160);stroke-width:2"/>
<line  x1="482" y1="50" x2="482" y2="50" style="stroke:rgb(168,228,160);stroke-width:2"/>
<line  x1="482" y1="50" x2="482" y2="50" style="stroke:rgb(168,228,160);stroke-width:2"/>
<line  x1="482" y1="50" x2="482" y2="50" style="stroke:rgb(168,228,160);stroke-width:2"/>
<line  x1="482" y1="50" x2="482" y2="50" style="stroke:rgb(168,228,160);stroke-width:2"/>
<line  x1="482" y1="50" x2="482" y2="50" style="stroke:rgb(168,228,160);stroke-width:2"/>
<line  x1="482" y1="50" x2="482" y2="50" style="stroke:rgb(168,228,160);stroke-width:2"/>
<line  x1="482" y1="50" x2="482" y2="50" style="stroke:rgb(168,228,160);stroke-width:2"/>
<line  x1="482" y1="50" x2="482" y2="50" style="stroke:rgb(168,228,160);stroke-width:2"/>
<line  x1="482" y1="50" x2="482" y2="50" style="stroke:rgb(168,228,160);stroke-width:2"/>
<line  x1="482" y1="50" x2="482" y2="50" style="stroke:rgb(168,228,160);stroke-width:2"/>
<line  x1="482" y1="50" x2="482" y2="50" style="stroke:rgb(168,228,160);stroke-width:2"/>
<line  x1="482" y1="50" x2="482" y2="50" style="stroke:rgb(168,228,160);stroke-width:2"/>
<line  x1="482" y1="50" x2="482" y2="50" style="stroke:rgb(168,228,160);stroke-width:2"/>
<line  x1="482" y1="50" x2="482" y2="50" style="stroke:rgb(168,228,160);stroke-width:2"/>
<line  x1="482" y1="50" x2="482" y2="50" style="stroke:rgb(168,228,160);stroke-width:2"/>
<line  x1="482" y1="50" x2="482" y2="50" style="stroke:rgb(168,228,160);stroke-width:2"/>
<line  x1="482" y1="50" x2="482" y2="50" style="stroke:rgb(168,228,160);stroke-width:2"/>
<line  x1="482" y1="50" x2="482" y2="50" style="stroke:rgb(168,228,160);stroke-width:2"/>
<line  x1="482" y1="50" x2="482" y2="50" style="stroke:rgb(168,228,160);stroke-width:2"/>
<line  x1="482" y1="50" x2="482" y2="50" style="stroke:rgb(168,228,160);stroke-width:2"/>
<line  x1="482" y1="50" x2="482" y2="50" style="stroke:rgb(168,228,160);stroke-width:2"/>
<line  x1="482" y1="50" x2="482" y2="50" style="stroke:rgb(168,228,160);stroke-width:2"/>
<line  x1="482" y1="50" x2="482" y2="50" style="stroke:rgb(168,228,160);stroke-width:2"/>
<line  x1="482" y1="50" x2="482" y2="50" style="stroke:rgb(168,228,160);stroke-width:2"/>
<line  x1="482" y1="50" x2="482" y2="50" style="stroke:rgb(168,228,160);stroke-width:2"/>
<line  x1="482" y1="50" x2="482" y2="50" style="stroke:rgb(168,228,160);stroke-width:2"/>
<line  x1="482" y1="50" x2="482" y2="50" style="stroke:rgb(168,228,160);stroke-width:2"/>
<line  x1="482" y1="50" x2="482" y2="50" style="stroke:rgb(168,228,160);stroke-width:2"/>
<line  x1="482" y1="50" x2="482" y2="50" style="stroke:rgb(168,228,160);stroke-width:2"/>
<line  x1="482" y1="50" x2="482" y2="50" style="stroke:rgb(168,228,160);stroke-width:2"/>
<line  x1="482" y1="50" x2="482" y2="50" style="stroke:rgb(168,228,160);stroke-width:2"/>
<line  x1="482" y1="50" x2="482" y2="50" style="stroke:rgb(168,228,160);stroke-width:2"/>
<line  x1="482" y1="50" x2="482" y2="50" style="stroke:rgb(168,228,160);stroke-width:2"/>
<line  x1="482" y1="50" x2="482" y2="50" style="stroke:rgb(168,228,160);stroke-width:2"/>
<line  x1="482" y1="50" x2="482" y2="50" style="stroke:rgb(168,228,160);stroke-width:2"/>
<line  x1="482" y1="50" x2="482" y2="50" style="stroke:rgb(168,228,160);stroke-width:2"/>
<line  x1="482" y1="50" x2="482" y2="50" style="stroke:rgb(168,228,160);stroke-width:2"/>
<line  x1="482" y1="50" x2="482" y2="50" style="stroke:rgb(168,228,160);stroke-width:2"/>
<line  x1="482" y1="50" x2="482" y2="50" style="stroke:rgb(168,228,160);stroke-width:2"/>
<line  x1="482" y1="50" x2="482" y2="50" style="stroke:rgb(168,228,160);stroke-width:2"/>
<line  x1="482" y1="50" x2="482" y2="50" style="stroke:rgb(168,228,160);stroke-width:2"/>
<line  x1="482" y1="50" x2="482" y2="50" style="stroke:rgb(168,228,160);stroke-width:2"/>
<line  x1="482" y1="50" x2="482" y2="50" style="stroke:rgb(168,228,160);stroke-width:2"/>
<line  x1="482" y1="50" x2="482" y2="50" style="stroke:rgb(168,228,160);stroke-width:2"/>
<line  x1="482" y1="50" x2="482" y2="50" style="stroke:rgb(168,228,160);stroke-width:2"/>
<line  x1="482" y1="50" x2="482" y2="50" style="stroke:rgb(168,228,160);stroke-width:2"/>
<line  x1="482" y1="50" x2="482" y2="50" style="stroke:rgb(168,228,160);stroke-width:2"/>
<line  x1="482" y1="50" x2="482" y2="50" style="stroke:rgb(168,228,160);stroke-width:2"/>
<line  x1="482" y1="50" x2="482" y2="50" style="stroke:rgb(168,228,160);stroke-width:2"/>
<line  x1="482" y1="50" x2="482" y2="50" style="stroke:rgb(168,228,160);stroke-width:2"/>
<line  x1="482" y1="50" x2="482" y2="50" style="stroke:rgb(168,228,160);stroke-width:2"/>
<line  x1="482" y1="50" x2="482" y2="50" style="stroke:rgb(168,228,160);stroke-width:2"/>
<line  x1="482" y1="50" x2="482" y2="50" style="stroke:rgb(168,228,160);stroke-width:2"/>
<line  x1="482" y1="50" x2="482" y2="50" style="stroke:rgb(168,228,160);stroke-width:2"/>
<line  x1="482" y1="50" x2="482" y2="50" style="stroke:rgb(168,228,160);stroke-width:2"/>
<line  x1="482" y1="50" x2="482" y2="50" style="stroke:rgb(168,228,160);stroke-width:2"/>
<line  x1="482" y1="50" x2="482" y2="50" style="stroke:rgb(168,228,160);stroke-width:2"/>
<line  x1="482" y1="50" x2="482" y2="50" style="stroke:rgb(168,228,160);stroke-width:2"/>
<line  x1="482" y1="50" x2="482" y2="50" style="stroke:rgb(168,228,160);stroke-width:2"/>
<line  x1="482" y1="50" x2="482" y2="50" style="stroke:rgb(168,228,160);stroke-width:2"/>
<line  x1="482" y1="50" x2="482" y2="50" style="stroke:rgb(168,228,160);stroke-width:2"/>
<line  x1="482" y1="50" x2="482" y2="50" style="stroke:rgb(168,228,160);stroke-width:2"/>
<line  x1="482" y1="50" x2="482" y2="50" style="stroke:rgb(168,228,160);stroke-width:2"/>
<line  x1="482" y1="50" x2="482" y2="50" style="stroke:rgb(168,228,160);stroke-width:2"/>
<line  x1="482" y1="50" x2="482" y2="50" style="stroke:rgb(168,228,160);stroke-width:2"/>
<line  x1="482" y1="50" x2="482" y2="50" style="stroke:rgb(168,228,160);stroke-width:2"/>
<line  x1="482" y1="50" x2="482" y2="50" style="stroke:rgb(168,228,160);stroke-width:2"/>
<line  x1="482" y1="50" x2="482" y2="50" style="stroke:rgb(168,228,160);stroke-width:2"/>
<line  x1="482" y1="50" x2="482" y2="50" style="stroke:rgb(168,228,160);stroke-width:2"/>
<line  x1="482" y1="50" x2="482" y2="50" style="stroke:rgb(168,228,160);stroke-width:2"/>
<line  x1="482" y1="50" x2="482" y2="50" style="stroke:rgb(168,228,160);stroke-width:2"/>
<line  x1="482" y1="50" x2="482" y2="50" style="stroke:rgb(168,228,160);stroke-width:2"/>
<line  x1="482" y1="50" x2="482" y2="50" style="stroke:rgb(168,228,160);stroke-width:2"/>
<line  x1="482" y1="50" x2="482" y2="50" style="stroke:rgb(168,228,160);stroke-width:2"/>
<line  x1="482" y1="50" x2="482" y2="50" style="stroke:rgb(168,228,160);stroke-width:2"/>
<line  x1="482" y1="50" x2="482" y2="50" style="stroke:rgb(168,228,160);stroke-width:2"/>
<line  x1="482" y1="50" x2="482" y2="50" style="stroke:rgb(168,228,160);stroke-width:2"/>
<line  x1="482" y1="50" x2="482" y2="50" style="stroke:rgb(168,228,160);stroke-width:2"/>
<line  x1="482" y1="50" x2="482" y2="50" style="stroke:rgb(168,228,160);stroke-width:2"/>
<line  x1="482" y1="50" x2="482" y2="50" style="stroke:rgb(168,228,160);stroke-width:2"/>
<line  x1="482" y1="50" x2="482" y2="50" style="stroke:rgb(168,228,160);stroke-width:2"/>
<line  x1="482" y1="50" x2="482" y2="50" style="stroke:rgb(168,228,160);stroke-width:2"/>
<line  x1="482" y1="50" x2="482" y2="50" style="stroke:rgb(168,228,160);stroke-width:2"/>
<line  x1="482" y1="50" x2="482" y2="50" style="stroke:rgb(168,228,160);stroke-width:2"/>
<line  x1="482" y1="50" x2="482" y2="50" style="stroke:rgb(168,228,160);stroke-width:2"/>
<line  x1="482" y1="50" x2="482" y2="50" style="stroke:rgb(168,228,160);stroke-width:2"/>
<line  x1="482" y1="50" x2="482" y2="50" style="stroke:rgb(168,228,160);stroke-width:2"/>
<line  x1="482" y1="50" x2="482" y2="50" style="stroke:rgb(168,228,160);stroke-width:2"/>
<line  x1="482" y1="50" x2="482" y2="50" style="stroke:rgb(168,228,160);stroke-width:2"/>
<line  x1="482" y1="50" x2="482" y2="50" style="stroke:rgb(168,228,160);stroke-width:2"/>
<line  x1="482" y1="50" x2="482" y2="50" style="stroke:rgb(168,228,160);stroke-width:2"/>
<line  x1="482" y1="50" x2="482" y2="50" style="stroke:rgb(168,228,160);stroke-width:2"/>
<line  x1="482" y1="50" x2="482" y2="50" style="stroke:rgb(168,228,160);stroke-width:2"/>

</svg>