<?xml version="1.0" encoding="utf-8"?>
<svg xmlns="http://www.w3.org/2000/svg" xmlns:xlink="http://www.w3.org/1999/xlink" width='1000px' height="1000px">
<rect x ="0"  y = '0' width='1000' height = '1000' fill = "rgb(0, 0, 0)" stroke = 'grey' stroke-width='5'/>
        <line x1="0" y1="43509.891299808056" x2 = "1000" y2 = "-13780.070330951376" style='stroke:rgb(148, 255, 255); stroke-width=1'/>
        <line x1="0" y1="4505.126403945793" x2 = "1000" y2 = "-639.4276120245177" style='stroke:rgb(148, 255, 255); stroke-width=1'/>
        <line x1="0" y1="2605.6066203909636" x2 = "1000" y2 = "0.5175556971622004" style='stroke:rgb(148, 255, 255); stroke-width=1'/>
        <line x1="0" y1="1903.9669914335689" x2 = "1000" y2 = "239.68750908305074" style='stroke:rgb(148, 255, 255); stroke-width=1'/>
        <line x1="0" y1="1538.0623059413588" x2 = "1000" y2 = "387.6938987203491" style='stroke:rgb(148, 255, 255); stroke-width=1'/>
        <line x1="0" y1="1295.566231634845" x2 = "1000" y2 = "485.78219843983777" style='stroke:rgb(148, 255, 255); stroke-width=1'/>
        <line x1="0" y1="1113.6680446343717" x2 = "1000" y2 = "559.3589931816026" style='stroke:rgb(148, 255, 255); stroke-width=1'/>
        <line x1="0" y1="964.1612606622418" x2 = "1000" y2 = "619.8336473725764" style='stroke:rgb(148, 255, 255); stroke-width=1'/>
        <line x1="0" y1="832.2884353511519" x2 = "1000" y2 = "673.9039950266157" style='stroke:rgb(148, 255, 255); stroke-width=1'/>
        <line x1="0" y1="739.9059111723986" x2 = "1000" y2 = "757.3609761006162" style='stroke:rgb(148, 255, 255); stroke-width=1'/>
        <line x1="0" y1="655.3298628368048" x2 = "1000" y2 = "849.7101719745232" style='stroke:rgb(148, 255, 255); stroke-width=1'/>
        <line x1="0" y1="583.5155307215775" x2 = "1000" y2 = "967.3795657569934" style='stroke:rgb(148, 255, 255); stroke-width=1'/>
        <line x1="0" y1="501.2738253885546" x2 = "1000" y2 = "1102.134444416115" style='stroke:rgb(148, 255, 255); stroke-width=1'/>
        <line x1="0" y1="419.5083012165162" x2 = "1000" y2 = "1288.7950390327426" style='stroke:rgb(148, 255, 255); stroke-width=1'/>
        <line x1="0" y1="322.98715067474643" x2 = "1000" y2 = "1557.884307209798" style='stroke:rgb(148, 255, 255); stroke-width=1'/>
        <line x1="0" y1="172.7313926083442" x2 = "1000" y2 = "1976.7791478797676" style='stroke:rgb(148, 255, 255); stroke-width=1'/>
        <line x1="0" y1="-117.71167170641739" x2 = "1000" y2 = "2786.4992059694064" style='stroke:rgb(148, 255, 255); stroke-width=1'/>
        <line x1="0" y1="-1017.83039987421" x2 = "1000" y2 = "5295.921114800829" style='stroke:rgb(148, 255, 255); stroke-width=1'/>
        <line x1="0" y1="15039.520139105067" x2 = "1000" y2 = "-42250.44149165395" style='stroke:rgb(148, 255, 255); stroke-width=1'/>
        <line x1="0" y1="1638.1503821043702" x2 = "1000" y2 = "-3506.4036338659425" style='stroke:rgb(148, 255, 255); stroke-width=1'/>
        <line x1="0" y1="985.5078896263067" x2 = "1000" y2 = "-1619.5811750674939" style='stroke:rgb(148, 255, 255); stroke-width=1'/>
        <line x1="0" y1="743.7198269640832" x2 = "1000" y2 = "-920.5596553864351" style='stroke:rgb(148, 255, 255); stroke-width=1'/>
        <line x1="0" y1="611.6446806557997" x2 = "1000" y2 = "-538.7237265652105" style='stroke:rgb(148, 255, 255); stroke-width=1'/>
        <line x1="0" y1="524.1144965311171" x2 = "1000" y2 = "-285.6695366638908" style='stroke:rgb(148, 255, 255); stroke-width=1'/>
        <line x1="0" y1="458.4574262233616" x2 = "1000" y2 = "-95.8516252294071" style='stroke:rgb(148, 255, 255); stroke-width=1'/>
        <line x1="0" y1="404.4921966154439" x2 = "1000" y2 = "60.164583325778715" style='stroke:rgb(148, 255, 255); stroke-width=1'/>
        <line x1="0" y1="336.98731389111276" x2 = "1000" y2 = "178.6028735665763" style='stroke:rgb(148, 255, 255); stroke-width=1'/>
        <line x1="0" y1="254.43462441933698" x2 = "1000" y2 = "271.88968934755417" style='stroke:rgb(148, 255, 255); stroke-width=1'/>
        <line x1="0" y1="125.71361371118984" x2 = "1000" y2 = "320.0939228489087" style='stroke:rgb(148, 255, 255); stroke-width=1'/>
        <line x1="0" y1="-12.988473645924435" x2 = "1000" y2 = "370.87556138949145" style='stroke:rgb(148, 255, 255); stroke-width=1'/>
        <line x1="0" y1="-171.82997312817415" x2 = "1000" y2 = "429.03064589938623" style='stroke:rgb(148, 255, 255); stroke-width=1'/>
        <line x1="0" y1="-368.31789208147745" x2 = "1000" y2 = "500.9688457347486" style='stroke:rgb(148, 255, 255); stroke-width=1'/>
        <line x1="0" y1="-635.9447185836566" x2 = "1000" y2 = "598.9524379513934" style='stroke:rgb(148, 255, 255); stroke-width=1'/>
        <line x1="0" y1="-1052.5629568586828" x2 = "1000" y2 = "751.4847984127417" style='stroke:rgb(148, 255, 255); stroke-width=1'/>
        <line x1="0" y1="-1859.4992059694055" x2 = "1000" y2 = "1044.7116717064173" style='stroke:rgb(148, 255, 255); stroke-width=1'/>
        <line x1="0" y1="-4368.921114800824" x2 = "1000" y2 = "1944.8303998742097" style='stroke:rgb(148, 255, 255); stroke-width=1'/>
        <circle cx="705" cy="267" r="3" stroke="white" stroke-width="0" fill="rgb(0, 255, 55)" />
        <circle cx="705" cy="267" r="0.5" stroke="white" stroke-width="0" fill="orange" />
        <circle cx="547" cy="697" r="3" stroke="white" stroke-width="0" fill="rgb(0, 255, 55)" />
        <circle cx="547" cy="697" r="0.5" stroke="white" stroke-width="0" fill="orange" />
        <circle cx="665" cy="267" r="3" stroke="white" stroke-width="0" fill="rgb(0, 255, 55)" />
        <circle cx="665" cy="267" r="0.5" stroke="white" stroke-width="0" fill="orange" />
        <circle cx="702" cy="425" r="3" stroke="white" stroke-width="0" fill="rgb(0, 255, 55)" />
        <circle cx="702" cy="425" r="0.5" stroke="white" stroke-width="0" fill="orange" />
        <circle cx="291" cy="410" r="3" stroke="white" stroke-width="0" fill="rgb(0, 255, 55)" />
        <circle cx="291" cy="410" r="0.5" stroke="white" stroke-width="0" fill="orange" />
        <circle cx="434" cy="581" r="3" stroke="white" stroke-width="0" fill="rgb(0, 255, 55)" />
        <circle cx="434" cy="581" r="0.5" stroke="white" stroke-width="0" fill="orange" />
        <circle cx="379" cy="480" r="3" stroke="white" stroke-width="0" fill="rgb(0, 255, 55)" />
        <circle cx="379" cy="480" r="0.5" stroke="white" stroke-width="0" fill="orange" />
        <circle cx="542" cy="626" r="3" stroke="white" stroke-width="0" fill="rgb(0, 255, 55)" />
        <circle cx="542" cy="626" r="0.5" stroke="white" stroke-width="0" fill="orange" />
        <circle cx="411" cy="603" r="3" stroke="white" stroke-width="0" fill="rgb(0, 255, 55)" />
        <circle cx="411" cy="603" r="0.5" stroke="white" stroke-width="0" fill="orange" />
        <circle cx="499" cy="597" r="3" stroke="white" stroke-width="0" fill="rgb(0, 255, 55)" />
        <circle cx="499" cy="597" r="0.5" stroke="white" stroke-width="0" fill="orange" />
        <circle cx="347" cy="472" r="3" stroke="white" stroke-width="0" fill="rgb(0, 255, 55)" />
        <circle cx="347" cy="472" r="0.5" stroke="white" stroke-width="0" fill="orange" />
        <circle cx="748" cy="657" r="3" stroke="white" stroke-width="0" fill="rgb(0, 255, 55)" />
        <circle cx="748" cy="657" r="0.5" stroke="white" stroke-width="0" fill="orange" />
        <circle cx="494" cy="461" r="3" stroke="white" stroke-width="0" fill="rgb(0, 255, 55)" />
        <circle cx="494" cy="461" r="0.5" stroke="white" stroke-width="0" fill="orange" />
        <circle cx="364" cy="372" r="3" stroke="white" stroke-width="0" fill="rgb(0, 255, 55)" />
        <circle cx="364" cy="372" r="0.5" stroke="white" stroke-width="0" fill="orange" />
        <circle cx="520" cy="633" r="3" stroke="white" stroke-width="0" fill="rgb(0, 255, 55)" />
        <circle cx="520" cy="633" r="0.5" stroke="white" stroke-width="0" fill="orange" />
        <circle cx="304" cy="541" r="3" stroke="white" stroke-width="0" fill="rgb(0, 255, 55)" />
        <circle cx="304" cy="541" r="0.5" stroke="white" stroke-width="0" fill="orange" />
        <circle cx="556" cy="583" r="3" stroke="white" stroke-width="0" fill="rgb(0, 255, 55)" />
        <circle cx="556" cy="583" r="0.5" stroke="white" stroke-width="0" fill="orange" />
        <circle cx="515" cy="680" r="3" stroke="white" stroke-width="0" fill="rgb(0, 255, 55)" />
        <circle cx="515" cy="680" r="0.5" stroke="white" stroke-width="0" fill="orange" />
        <circle cx="350" cy="436" r="3" stroke="white" stroke-width="0" fill="rgb(0, 255, 55)" />
        <circle cx="350" cy="436" r="0.5" stroke="white" stroke-width="0" fill="orange" />
        <circle cx="630" cy="582" r="3" stroke="white" stroke-width="0" fill="rgb(0, 255, 55)" />
        <circle cx="630" cy="582" r="0.5" stroke="white" stroke-width="0" fill="orange" />
        <circle cx="600" cy="676" r="3" stroke="white" stroke-width="0" fill="rgb(0, 255, 55)" />
        <circle cx="600" cy="676" r="0.5" stroke="white" stroke-width="0" fill="orange" />
        <circle cx="372" cy="494" r="3" stroke="white" stroke-width="0" fill="rgb(0, 255, 55)" />
        <circle cx="372" cy="494" r="0.5" stroke="white" stroke-width="0" fill="orange" />
        <circle cx="740" cy="553" r="3" stroke="white" stroke-width="0" fill="rgb(0, 255, 55)" />
        <circle cx="740" cy="553" r="0.5" stroke="white" stroke-width="0" fill="orange" />
        <circle cx="588" cy="589" r="3" stroke="white" stroke-width="0" fill="rgb(0, 255, 55)" />
        <circle cx="588" cy="589" r="0.5" stroke="white" stroke-width="0" fill="orange" />
        <circle cx="391" cy="454" r="3" stroke="white" stroke-width="0" fill="rgb(0, 255, 55)" />
        <circle cx="391" cy="454" r="0.5" stroke="white" stroke-width="0" fill="orange" />
        <circle cx="503" cy="725" r="3" stroke="white" stroke-width="0" fill="rgb(0, 255, 55)" />
        <circle cx="503" cy="725" r="0.5" stroke="white" stroke-width="0" fill="orange" />
        <circle cx="370" cy="697" r="3" stroke="white" stroke-width="0" fill="rgb(0, 255, 55)" />
        <circle cx="370" cy="697" r="0.5" stroke="white" stroke-width="0" fill="orange" />
        <circle cx="574" cy="691" r="3" stroke="white" stroke-width="0" fill="rgb(0, 255, 55)" />
        <circle cx="574" cy="691" r="0.5" stroke="white" stroke-width="0" fill="orange" />
        <circle cx="604" cy="503" r="3" stroke="white" stroke-width="0" fill="rgb(0, 255, 55)" />
        <circle cx="604" cy="503" r="0.5" stroke="white" stroke-width="0" fill="orange" />
        <circle cx="424" cy="275" r="3" stroke="white" stroke-width="0" fill="rgb(0, 255, 55)" />
        <circle cx="424" cy="275" r="0.5" stroke="white" stroke-width="0" fill="orange" />
        <circle cx="362" cy="590" r="3" stroke="white" stroke-width="0" fill="rgb(0, 255, 55)" />
        <circle cx="362" cy="590" r="0.5" stroke="white" stroke-width="0" fill="orange" />
        <circle cx="671" cy="273" r="3" stroke="white" stroke-width="0" fill="rgb(0, 255, 55)" />
        <circle cx="671" cy="273" r="0.5" stroke="white" stroke-width="0" fill="orange" />
        <circle cx="401" cy="327" r="3" stroke="white" stroke-width="0" fill="rgb(0, 255, 55)" />
        <circle cx="401" cy="327" r="0.5" stroke="white" stroke-width="0" fill="orange" />
        <circle cx="257" cy="316" r="3" stroke="white" stroke-width="0" fill="rgb(0, 255, 55)" />
        <circle cx="257" cy="316" r="0.5" stroke="white" stroke-width="0" fill="orange" />
        <circle cx="531" cy="574" r="3" stroke="white" stroke-width="0" fill="rgb(0, 255, 55)" />
        <circle cx="531" cy="574" r="0.5" stroke="white" stroke-width="0" fill="orange" />
        <circle cx="526" cy="377" r="3" stroke="white" stroke-width="0" fill="rgb(0, 255, 55)" />
        <circle cx="526" cy="377" r="0.5" stroke="white" stroke-width="0" fill="orange" />
        <circle cx="652" cy="529" r="3" stroke="white" stroke-width="0" fill="rgb(0, 255, 55)" />
        <circle cx="652" cy="529" r="0.5" stroke="white" stroke-width="0" fill="orange" />
        <circle cx="714" cy="546" r="3" stroke="white" stroke-width="0" fill="rgb(0, 255, 55)" />
        <circle cx="714" cy="546" r="0.5" stroke="white" stroke-width="0" fill="orange" />
        <circle cx="701" cy="366" r="3" stroke="white" stroke-width="0" fill="rgb(0, 255, 55)" />
        <circle cx="701" cy="366" r="0.5" stroke="white" stroke-width="0" fill="orange" />
        <circle cx="401" cy="673" r="3" stroke="white" stroke-width="0" fill="rgb(0, 255, 55)" />
        <circle cx="401" cy="673" r="0.5" stroke="white" stroke-width="0" fill="orange" />
        <circle cx="361" cy="643" r="3" stroke="white" stroke-width="0" fill="rgb(0, 255, 55)" />
        <circle cx="361" cy="643" r="0.5" stroke="white" stroke-width="0" fill="orange" />
        <circle cx="700" cy="672" r="3" stroke="white" stroke-width="0" fill="rgb(0, 255, 55)" />
        <circle cx="700" cy="672" r="0.5" stroke="white" stroke-width="0" fill="orange" />
        <circle cx="274" cy="445" r="3" stroke="white" stroke-width="0" fill="rgb(0, 255, 55)" />
        <circle cx="274" cy="445" r="0.5" stroke="white" stroke-width="0" fill="orange" />
        <circle cx="268" cy="535" r="3" stroke="white" stroke-width="0" fill="rgb(0, 255, 55)" />
        <circle cx="268" cy="535" r="0.5" stroke="white" stroke-width="0" fill="orange" />
        <circle cx="521" cy="749" r="3" stroke="white" stroke-width="0" fill="rgb(0, 255, 55)" />
        <circle cx="521" cy="749" r="0.5" stroke="white" stroke-width="0" fill="orange" />
        <circle cx="333" cy="625" r="3" stroke="white" stroke-width="0" fill="rgb(0, 255, 55)" />
        <circle cx="333" cy="625" r="0.5" stroke="white" stroke-width="0" fill="orange" />
        <circle cx="289" cy="453" r="3" stroke="white" stroke-width="0" fill="rgb(0, 255, 55)" />
        <circle cx="289" cy="453" r="0.5" stroke="white" stroke-width="0" fill="orange" />
        <circle cx="540" cy="718" r="3" stroke="white" stroke-width="0" fill="rgb(0, 255, 55)" />
        <circle cx="540" cy="718" r="0.5" stroke="white" stroke-width="0" fill="orange" />
        <circle cx="395" cy="460" r="3" stroke="white" stroke-width="0" fill="rgb(0, 255, 55)" />
        <circle cx="395" cy="460" r="0.5" stroke="white" stroke-width="0" fill="orange" />
        <circle cx="589" cy="739" r="3" stroke="white" stroke-width="0" fill="rgb(0, 255, 55)" />
        <circle cx="589" cy="739" r="0.5" stroke="white" stroke-width="0" fill="orange" />
        <circle cx="458" cy="642" r="3" stroke="white" stroke-width="0" fill="rgb(0, 255, 55)" />
        <circle cx="458" cy="642" r="0.5" stroke="white" stroke-width="0" fill="orange" />
        <circle cx="370" cy="540" r="3" stroke="white" stroke-width="0" fill="rgb(0, 255, 55)" />
        <circle cx="370" cy="540" r="0.5" stroke="white" stroke-width="0" fill="orange" />
        <circle cx="264" cy="649" r="3" stroke="white" stroke-width="0" fill="rgb(0, 255, 55)" />
        <circle cx="264" cy="649" r="0.5" stroke="white" stroke-width="0" fill="orange" />
        <circle cx="407" cy="725" r="3" stroke="white" stroke-width="0" fill="rgb(0, 255, 55)" />
        <circle cx="407" cy="725" r="0.5" stroke="white" stroke-width="0" fill="orange" />
        <circle cx="602" cy="665" r="3" stroke="white" stroke-width="0" fill="rgb(0, 255, 55)" />
        <circle cx="602" cy="665" r="0.5" stroke="white" stroke-width="0" fill="orange" />
        <circle cx="619" cy="682" r="3" stroke="white" stroke-width="0" fill="rgb(0, 255, 55)" />
        <circle cx="619" cy="682" r="0.5" stroke="white" stroke-width="0" fill="orange" />
        <circle cx="316" cy="576" r="3" stroke="white" stroke-width="0" fill="rgb(0, 255, 55)" />
        <circle cx="316" cy="576" r="0.5" stroke="white" stroke-width="0" fill="orange" />
        <circle cx="495" cy="636" r="3" stroke="white" stroke-width="0" fill="rgb(0, 255, 55)" />
        <circle cx="495" cy="636" r="0.5" stroke="white" stroke-width="0" fill="orange" />
        <circle cx="269" cy="587" r="3" stroke="white" stroke-width="0" fill="rgb(0, 255, 55)" />
        <circle cx="269" cy="587" r="0.5" stroke="white" stroke-width="0" fill="orange" />
        <circle cx="496" cy="606" r="3" stroke="white" stroke-width="0" fill="rgb(0, 255, 55)" />
        <circle cx="496" cy="606" r="0.5" stroke="white" stroke-width="0" fill="orange" />
        <circle cx="564" cy="433" r="3" stroke="white" stroke-width="0" fill="rgb(0, 255, 55)" />
        <circle cx="564" cy="433" r="0.5" stroke="white" stroke-width="0" fill="orange" />
        <circle cx="548" cy="264" r="3" stroke="white" stroke-width="0" fill="rgb(0, 255, 55)" />
        <circle cx="548" cy="264" r="0.5" stroke="white" stroke-width="0" fill="orange" />
        <circle cx="525" cy="568" r="3" stroke="white" stroke-width="0" fill="rgb(0, 255, 55)" />
        <circle cx="525" cy="568" r="0.5" stroke="white" stroke-width="0" fill="orange" />
        <circle cx="439" cy="670" r="3" stroke="white" stroke-width="0" fill="rgb(0, 255, 55)" />
        <circle cx="439" cy="670" r="0.5" stroke="white" stroke-width="0" fill="orange" />
        <circle cx="564" cy="288" r="3" stroke="white" stroke-width="0" fill="rgb(0, 255, 55)" />
        <circle cx="564" cy="288" r="0.5" stroke="white" stroke-width="0" fill="orange" />
        <circle cx="509" cy="687" r="3" stroke="white" stroke-width="0" fill="rgb(0, 255, 55)" />
        <circle cx="509" cy="687" r="0.5" stroke="white" stroke-width="0" fill="orange" />
        <circle cx="712" cy="719" r="3" stroke="white" stroke-width="0" fill="rgb(0, 255, 55)" />
        <circle cx="712" cy="719" r="0.5" stroke="white" stroke-width="0" fill="orange" />
        <circle cx="597" cy="279" r="3" stroke="white" stroke-width="0" fill="rgb(0, 255, 55)" />
        <circle cx="597" cy="279" r="0.5" stroke="white" stroke-width="0" fill="orange" />
        <circle cx="615" cy="584" r="3" stroke="white" stroke-width="0" fill="rgb(0, 255, 55)" />
        <circle cx="615" cy="584" r="0.5" stroke="white" stroke-width="0" fill="orange" />
        <circle cx="297" cy="419" r="3" stroke="white" stroke-width="0" fill="rgb(0, 255, 55)" />
        <circle cx="297" cy="419" r="0.5" stroke="white" stroke-width="0" fill="orange" />
        <circle cx="303" cy="469" r="3" stroke="white" stroke-width="0" fill="rgb(0, 255, 55)" />
        <circle cx="303" cy="469" r="0.5" stroke="white" stroke-width="0" fill="orange" />
        <circle cx="509" cy="649" r="3" stroke="white" stroke-width="0" fill="rgb(0, 255, 55)" />
        <circle cx="509" cy="649" r="0.5" stroke="white" stroke-width="0" fill="orange" />
        <circle cx="392" cy="618" r="3" stroke="white" stroke-width="0" fill="rgb(0, 255, 55)" />
        <circle cx="392" cy="618" r="0.5" stroke="white" stroke-width="0" fill="orange" />
        <circle cx="434" cy="483" r="3" stroke="white" stroke-width="0" fill="rgb(0, 255, 55)" />
        <circle cx="434" cy="483" r="0.5" stroke="white" stroke-width="0" fill="orange" />
        <circle cx="711" cy="338" r="3" stroke="white" stroke-width="0" fill="rgb(0, 255, 55)" />
        <circle cx="711" cy="338" r="0.5" stroke="white" stroke-width="0" fill="orange" />
        <circle cx="640" cy="508" r="3" stroke="white" stroke-width="0" fill="rgb(0, 255, 55)" />
        <circle cx="640" cy="508" r="0.5" stroke="white" stroke-width="0" fill="orange" />
        <circle cx="622" cy="438" r="3" stroke="white" stroke-width="0" fill="rgb(0, 255, 55)" />
        <circle cx="622" cy="438" r="0.5" stroke="white" stroke-width="0" fill="orange" />
        <circle cx="492" cy="620" r="3" stroke="white" stroke-width="0" fill="rgb(0, 255, 55)" />
        <circle cx="492" cy="620" r="0.5" stroke="white" stroke-width="0" fill="orange" />
        <circle cx="732" cy="268" r="3" stroke="white" stroke-width="0" fill="rgb(0, 255, 55)" />
        <circle cx="732" cy="268" r="0.5" stroke="white" stroke-width="0" fill="orange" />
        <circle cx="732" cy="463" r="3" stroke="white" stroke-width="0" fill="rgb(0, 255, 55)" />
        <circle cx="732" cy="463" r="0.5" stroke="white" stroke-width="0" fill="orange" />
        <circle cx="487" cy="649" r="3" stroke="white" stroke-width="0" fill="rgb(0, 255, 55)" />
        <circle cx="487" cy="649" r="0.5" stroke="white" stroke-width="0" fill="orange" />
        <circle cx="322" cy="670" r="3" stroke="white" stroke-width="0" fill="rgb(0, 255, 55)" />
        <circle cx="322" cy="670" r="0.5" stroke="white" stroke-width="0" fill="orange" />
        <circle cx="443" cy="480" r="3" stroke="white" stroke-width="0" fill="rgb(0, 255, 55)" />
        <circle cx="443" cy="480" r="0.5" stroke="white" stroke-width="0" fill="orange" />
        <circle cx="379" cy="729" r="3" stroke="white" stroke-width="0" fill="rgb(0, 255, 55)" />
        <circle cx="379" cy="729" r="0.5" stroke="white" stroke-width="0" fill="orange" />
        <circle cx="713" cy="679" r="3" stroke="white" stroke-width="0" fill="rgb(0, 255, 55)" />
        <circle cx="713" cy="679" r="0.5" stroke="white" stroke-width="0" fill="orange" />
        <circle cx="717" cy="327" r="3" stroke="white" stroke-width="0" fill="rgb(0, 255, 55)" />
        <circle cx="717" cy="327" r="0.5" stroke="white" stroke-width="0" fill="orange" />
        <circle cx="736" cy="278" r="3" stroke="white" stroke-width="0" fill="rgb(0, 255, 55)" />
        <circle cx="736" cy="278" r="0.5" stroke="white" stroke-width="0" fill="orange" />
        <circle cx="419" cy="594" r="3" stroke="white" stroke-width="0" fill="rgb(0, 255, 55)" />
        <circle cx="419" cy="594" r="0.5" stroke="white" stroke-width="0" fill="orange" />
        <circle cx="337" cy="533" r="3" stroke="white" stroke-width="0" fill="rgb(0, 255, 55)" />
        <circle cx="337" cy="533" r="0.5" stroke="white" stroke-width="0" fill="orange" />
        <circle cx="469" cy="389" r="3" stroke="white" stroke-width="0" fill="rgb(0, 255, 55)" />
        <circle cx="469" cy="389" r="0.5" stroke="white" stroke-width="0" fill="orange" />
        <circle cx="520" cy="278" r="3" stroke="white" stroke-width="0" fill="rgb(0, 255, 55)" />
        <circle cx="520" cy="278" r="0.5" stroke="white" stroke-width="0" fill="orange" />
        <circle cx="645" cy="456" r="3" stroke="white" stroke-width="0" fill="rgb(0, 255, 55)" />
        <circle cx="645" cy="456" r="0.5" stroke="white" stroke-width="0" fill="orange" />
        <circle cx="365" cy="706" r="3" stroke="white" stroke-width="0" fill="rgb(0, 255, 55)" />
        <circle cx="365" cy="706" r="0.5" stroke="white" stroke-width="0" fill="orange" />
        <circle cx="518" cy="402" r="3" stroke="white" stroke-width="0" fill="rgb(0, 255, 55)" />
        <circle cx="518" cy="402" r="0.5" stroke="white" stroke-width="0" fill="orange" />
        <circle cx="475" cy="349" r="3" stroke="white" stroke-width="0" fill="rgb(0, 255, 55)" />
        <circle cx="475" cy="349" r="0.5" stroke="white" stroke-width="0" fill="orange" />
        <circle cx="404" cy="273" r="3" stroke="white" stroke-width="0" fill="rgb(0, 255, 55)" />
        <circle cx="404" cy="273" r="0.5" stroke="white" stroke-width="0" fill="orange" />
        <circle cx="520" cy="673" r="3" stroke="white" stroke-width="0" fill="rgb(0, 255, 55)" />
        <circle cx="520" cy="673" r="0.5" stroke="white" stroke-width="0" fill="orange" />
        <circle cx="419" cy="716" r="3" stroke="white" stroke-width="0" fill="rgb(0, 255, 55)" />
        <circle cx="419" cy="716" r="0.5" stroke="white" stroke-width="0" fill="orange" />
        <circle cx="428" cy="274" r="3" stroke="white" stroke-width="0" fill="rgb(0, 255, 55)" />
        <circle cx="428" cy="274" r="0.5" stroke="white" stroke-width="0" fill="orange" />
        <circle cx="707" cy="442" r="3" stroke="white" stroke-width="0" fill="rgb(0, 255, 55)" />
        <circle cx="707" cy="442" r="0.5" stroke="white" stroke-width="0" fill="orange" /></svg>
